P3
20 20
255
0 0 0 0 0 0 0 0 0 0 0 0 0 0 0 0 0 0 0 0 0 0 0 0 0 0 0 0 0 0 0 0 0 0 0 0 0 0 0 0 0 0 0 0 0 0 0 0 0 0 0 0 0 0 0 0 0 0 0 0
0 0 0 0 0 0 0 0 0 0 0 0 0 0 0 0 0 0 0 0 0 0 0 0 0 0 0 0 0 0 0 0 0 0 0 0 0 0 0 0 0 0 0 0 0 0 0 0 0 0 0 0 0 0 0 0 0 0 0 0
0 0 0 0 0 0 0 0 0 0 0 0 0 0 0 0 0 0 0 0 0 0 0 0 0 0 0 0 0 0 0 0 0 0 0 0 0 0 0 0 0 0 0 0 0 0 0 0 0 0 0 0 0 0 0 0 0 0 0 0
0 0 0 0 0 0 0 0 0 0 0 0 0 0 0 0 0 0 0 0 0 0 0 0 151 100 100 0 0 0 0 0 0 0 0 0 0 0 0 0 0 0 0 0 0 0 0 0 0 0 0 0 0 0 0 0 0 0 0 0
0 0 0 0 0 0 0 0 0 126 85 85 143 96 96 37 32 32 81 58 58 148 98 98 155 102 102 0 0 0 0 0 0 0 0 0 0 0 0 0 0 0 0 0 0 0 0 0 0 0 0 0 0 0 0 0 0 0 0 0
0 0 0 0 0 0 0 0 0 84 60 60 25 25 25 25 25 25 25 25 25 84 60 60 25 25 25 0 0 0 0 0 0 182 119 119 167 110 110 0 0 0 0 0 0 0 0 0 0 0 0 0 0 0 0 0 0 0 0 0
0 0 0 0 0 0 25 25 25 97 68 68 155 102 102 124 84 84 78 56 56 25 25 25 25 25 25 25 25 25 181 118 118 143 95 95 121 82 82 86 61 61 0 0 0 46 37 37 158 104 104 0 0 0 0 0 0 0 0 0
0 0 0 0 0 0 0 0 0 0 0 0 0 0 0 0 0 0 138 92 92 35 31 31 0 0 0 184 120 120 111 76 76 30 28 28 79 57 57 111 76 76 25 25 25 111 76 76 108 74 74 0 0 0 0 0 0 0 0 0
0 0 0 0 0 0 0 0 0 0 0 0 0 0 0 160 106 106 75 55 55 25 25 25 156 103 103 144 96 96 56 43 43 0 0 0 155 103 103 108 75 75 25 25 25 100 69 69 0 0 0 0 0 0 0 0 0 0 0 0
0 0 0 0 0 0 0 0 0 0 0 0 238 152 152 127 86 86 25 25 25 0 0 0 173 113 113 99 69 69 25 25 25 0 0 0 150 100 100 25 25 25 97 68 68 158 104 104 0 0 0 0 0 0 0 0 0 0 0 0
0 0 0 0 0 0 0 0 0 159 105 105 191 124 124 198 128 128 85 61 61 158 104 104 120 82 82 102 71 71 0 0 0 168 110 110 122 83 83 25 25 25 0 0 0 145 97 97 0 0 0 0 0 0 0 0 0 0 0 0
0 0 0 0 0 0 0 0 0 136 91 91 132 89 89 135 90 90 122 83 83 80 57 57 169 111 111 25 25 25 0 0 0 171 112 112 25 25 25 25 25 25 171 112 112 125 85 85 0 0 0 0 0 0 0 0 0 0 0 0
39 39 39 38 38 38 38 38 38 38 38 38 118 80 80 25 25 25 124 84 84 93 66 66 140 93 93 37 37 37 37 37 37 124 84 84 78 57 57 167 110 110 114 78 78 25 25 25 36 36 36 36 36 36 36 36 36 36 36 36
59 59 59 58 58 58 58 58 58 57 57 57 77 77 77 76 76 76 76 76 76 75 75 75 75 75 75 54 54 54 74 74 74 106 93 93 73 73 73 98 88 88 72 72 72 72 72 72 51 51 51 51 51 51 51 51 51 50 50 50
73 73 73 73 73 73 72 72 72 71 71 71 166 135 135 90 90 90 160 131 131 149 125 125 187 147 147 88 88 88 67 67 67 86 86 86 126 110 110 85 85 85 156 127 127 84 84 84 63 63 63 63 63 63 62 62 62 62 62 62
79 79 79 78 78 78 77 77 77 156 132 132 212 165 165 188 151 151 188 150 150 125 113 113 211 163 163 108 102 102 72 72 72 210 162 162 187 148 148 128 113 113 206 159 159 137 118 118 69 69 69 68 68 68 68 68 68 67 67 67
78 78 78 78 78 78 77 77 77 77 77 77 252 189 189 220 170 170 115 107 107 187 150 150 197 156 156 152 128 128 93 93 93 210 163 163 170 139 139 91 91 91 71 71 71 182 145 145 70 70 70 69 69 69 69 69 69 68 68 68
76 76 76 75 75 75 75 75 75 74 74 74 255 221 221 150 127 127 93 93 93 73 73 73 217 167 167 183 146 146 91 91 91 71 71 71 199 155 155 90 90 90 90 90 90 195 152 152 69 69 69 68 68 68 68 68 68 68 68 68
73 73 73 73 73 73 72 72 72 72 72 72 72 72 72 214 164 164 158 131 131 90 90 90 195 153 153 206 159 159 149 125 125 89 89 89 162 132 132 149 124 124 88 88 88 132 114 114 67 67 67 67 67 67 67 67 67 66 66 66
70 70 70 70 70 70 70 70 70 69 69 69 69 69 69 69 69 69 89 89 89 88 88 88 68 68 68 213 163 163 178 141 141 119 106 106 147 123 123 132 114 114 86 86 86 148 123 123 156 128 128 65 65 65 65 65 65 65 65 65
