P3
72 36
255
0 0 0 0 0 0 0 0 0 0 0 0 0 0 0 0 0 0 0 0 0 0 0 0 0 0 0 0 0 0 0 0 0 0 0 0 0 0 0 0 0 0 0 0 0 0 0 0 0 0 0 0 0 0 0 0 0 0 0 0 0 0 0 0 0 0 0 0 0 0 0 0 0 0 0 0 0 0 0 0 0 0 0 0 0 0 0 0 0 0 0 0 0 0 0 0 0 0 0 0 0 0 0 0 0 0 0 0 0 0 0 0 0 0 0 0 0 0 0 0 0 0 0 0 0 0 0 0 0 0 0 0 0 0 0 0 0 0 0 0 0 0 0 0 0 0 0 0 0 0 0 0 0 0 0 0 0 0 0 0 0 0 0 0 0 0 0 0 0 0 0 0 0 0 0 0 0 0 0 0 0 0 0 0 0 0 0 0 0 0 0 0 0 0 0 0 0 0 0 0 0 0 0 0 0 0 0 0 0 0 0 0 0 0 0 0
0 0 0 0 0 0 0 0 0 0 0 0 0 0 0 0 0 0 0 0 0 0 0 0 0 0 0 0 0 0 0 0 0 0 0 0 0 0 0 0 0 0 0 0 0 0 0 0 0 0 0 0 0 0 0 0 0 0 0 0 0 0 0 0 0 0 0 0 0 0 0 0 0 0 0 0 0 0 0 0 0 0 0 0 0 0 0 0 0 0 0 0 0 0 0 0 0 0 0 0 0 0 0 0 0 0 0 0 0 0 0 0 0 0 0 0 0 0 0 0 0 0 0 0 0 0 0 0 0 0 0 0 0 0 0 0 0 0 0 0 0 0 0 0 0 0 0 0 0 0 0 0 0 0 0 0 0 0 0 0 0 0 0 0 0 0 0 0 0 0 0 0 0 0 0 0 0 0 0 0 0 0 0 0 0 0 0 0 0 0 0 0 0 0 0 0 0 0 0 0 0 0 0 0 0 0 0 0 0 0 0 0 0 0 0 0
0 0 0 0 0 0 0 0 0 0 0 0 0 0 0 0 0 0 0 0 0 0 0 0 0 0 0 0 0 0 0 0 0 0 0 0 0 0 0 0 0 0 0 0 0 0 0 0 0 0 0 0 0 0 0 0 0 0 0 0 0 0 0 0 0 0 0 0 0 0 0 0 0 0 0 0 0 0 0 0 0 0 0 0 0 0 0 0 0 0 0 0 0 0 0 0 0 0 0 0 0 0 0 0 0 0 0 0 0 0 0 0 0 0 0 0 0 0 0 0 0 0 0 0 0 0 0 0 0 0 0 0 0 0 0 0 0 0 0 0 0 0 0 0 0 0 0 0 0 0 0 0 0 0 0 0 0 0 0 0 0 0 0 0 0 0 0 0 0 0 0 0 0 0 0 0 0 0 0 0 0 0 0 0 0 0 0 0 0 0 0 0 0 0 0 0 0 0 0 0 0 0 0 0 0 0 0 0 0 0 0 0 0 0 0 0
0 0 0 0 0 0 0 0 0 0 0 0 0 0 0 0 0 0 0 0 0 0 0 0 0 0 0 0 0 0 0 0 0 0 0 0 0 0 0 0 0 0 0 0 0 0 0 0 0 0 0 0 0 0 0 0 0 0 0 0 0 0 0 0 0 0 0 0 0 0 0 0 0 0 0 0 0 0 0 0 0 0 0 0 0 0 0 0 0 0 0 0 0 0 0 0 0 0 0 0 0 0 0 0 0 0 0 0 0 0 0 0 0 0 0 0 0 0 0 0 0 0 0 0 0 0 0 0 0 0 0 0 0 0 0 0 0 0 0 0 0 0 0 0 0 0 0 0 0 0 0 0 0 0 0 0 0 0 0 0 0 0 0 0 0 0 0 0 0 0 0 0 0 0 0 0 0 0 0 0 0 0 0 0 0 0 0 0 0 0 0 0 0 0 0 0 0 0 0 0 0 0 0 0 0 0 0 0 0 0 0 0 0 0 0 0
0 0 0 0 0 0 0 0 0 0 0 0 0 0 0 0 0 0 0 0 0 0 0 0 0 0 0 0 0 0 0 0 0 0 0 0 0 0 0 0 0 0 0 0 0 0 0 0 0 0 0 0 0 0 0 0 0 0 0 0 0 0 0 0 0 0 0 0 0 0 0 0 0 0 0 0 0 0 0 0 0 0 0 0 0 0 0 0 0 0 0 0 0 0 0 0 0 0 0 0 0 0 0 0 0 0 0 0 0 0 0 0 0 0 0 0 0 0 0 0 0 0 0 0 0 0 0 0 0 0 0 0 0 0 0 0 0 0 0 0 0 0 0 0 0 0 0 0 0 0 0 0 0 0 0 0 0 0 0 0 0 0 0 0 0 0 0 0 0 0 0 0 0 0 0 0 0 0 0 0 0 0 0 0 0 0 0 0 0 0 0 0 0 0 0 0 0 0 0 0 0 0 0 0 0 0 0 0 0 0 0 0 0 0 0 0
0 0 0 0 0 0 0 0 0 0 0 0 0 0 0 0 0 0 0 0 0 0 0 0 0 0 0 0 0 0 0 0 0 0 0 0 0 0 0 0 0 0 0 0 0 0 0 0 0 0 0 0 0 0 0 0 0 0 0 0 0 0 0 0 0 0 0 0 0 0 0 0 0 0 0 0 0 0 0 0 0 0 0 0 0 0 0 0 0 0 0 0 0 0 0 0 0 0 0 0 0 0 0 0 0 0 0 0 0 0 0 0 0 0 0 0 0 0 0 0 0 0 0 0 0 0 0 0 0 0 0 0 0 0 0 0 0 0 0 0 0 0 0 0 0 0 0 0 0 0 0 0 0 0 0 0 0 0 0 0 0 0 0 0 0 0 0 0 0 0 0 0 0 0 0 0 0 0 0 0 0 0 0 0 0 0 0 0 0 0 0 0 0 0 0 0 0 0 0 0 0 0 0 0 0 0 0 0 0 0 0 0 0 0 0 0
0 0 0 0 0 0 0 0 0 0 0 0 0 0 0 0 0 0 0 0 0 0 0 0 0 0 0 0 0 0 0 0 0 0 0 0 0 0 0 0 0 0 0 0 0 0 0 0 0 0 0 0 0 0 0 0 0 0 0 0 0 0 0 0 0 0 0 0 0 0 0 0 0 0 0 0 0 0 0 0 0 0 0 0 0 0 0 0 0 0 0 0 0 0 0 0 0 0 0 0 0 0 0 0 0 0 0 0 0 0 0 0 0 0 0 0 0 0 0 0 0 0 0 0 0 0 0 0 0 0 0 0 0 0 0 0 0 0 0 0 0 0 0 0 0 0 0 0 0 0 0 0 0 0 0 0 0 0 0 0 0 0 0 0 0 0 0 0 0 0 0 0 0 0 0 0 0 0 0 0 0 0 0 0 0 0 0 0 0 0 0 0 0 0 0 0 0 0 0 0 0 0 0 0 0 0 0 0 0 0 0 0 0 0 0 0
0 0 0 0 0 0 0 0 0 0 0 0 0 0 0 0 0 0 0 0 0 0 0 0 0 0 0 0 0 0 0 0 0 0 0 0 0 0 0 0 0 0 0 0 0 0 0 0 0 0 0 0 0 0 0 0 0 0 0 0 0 0 0 0 0 0 0 0 0 0 0 0 0 0 0 0 0 0 0 0 0 0 0 0 0 0 0 0 0 0 0 0 0 0 0 0 0 0 0 0 0 0 0 0 0 0 0 0 0 0 0 0 0 0 0 0 0 0 0 0 0 0 0 0 0 0 0 0 0 0 0 0 0 0 0 0 0 0 0 0 0 0 0 0 0 0 0 0 0 0 0 0 0 0 0 0 0 0 0 0 0 0 0 0 0 0 0 0 0 0 0 0 0 0 0 0 0 0 0 0 0 0 0 0 0 0 0 0 0 0 0 0 0 0 0 0 0 0 0 0 0 0 0 0 0 0 0 0 0 0 0 0 0 0 0 0
0 0 0 0 0 0 0 0 0 0 0 0 0 0 0 0 0 0 0 0 0 0 0 0 0 0 0 0 0 0 0 0 0 0 0 0 0 0 0 0 0 0 0 0 0 0 0 0 0 0 0 0 0 0 0 0 0 0 0 0 0 0 0 0 0 0 0 0 0 0 0 0 0 0 0 0 0 0 0 0 0 0 0 0 0 0 0 0 0 0 0 0 0 0 0 0 0 0 0 0 0 0 0 0 0 0 0 0 0 0 0 0 0 0 0 0 0 0 0 0 0 0 0 0 0 0 0 0 0 0 0 0 0 0 0 0 0 0 0 0 0 0 0 0 0 0 0 0 0 0 0 0 0 0 0 0 0 0 0 0 0 0 0 0 0 0 0 0 0 0 0 0 0 0 0 0 0 0 0 0 0 0 0 0 0 0 0 0 0 0 0 0 0 0 0 0 0 0 0 0 0 0 0 0 0 0 0 0 0 0 0 0 0 0 0 0
0 0 0 0 0 0 0 0 0 0 0 0 0 0 0 0 0 0 0 0 0 0 0 0 0 0 0 0 0 0 0 0 0 0 0 0 25 25 25 25 25 25 25 25 25 25 25 25 25 25 25 25 25 25 25 25 25 0 0 0 0 0 0 0 0 0 0 0 0 0 0 0 0 0 0 0 0 0 0 0 0 0 0 0 0 0 0 0 0 0 0 0 0 0 0 0 0 0 0 0 0 0 0 0 0 0 0 0 0 0 0 0 0 0 0 0 0 0 0 0 0 0 0 0 0 0 0 0 0 0 0 0 0 0 0 0 0 0 0 0 0 0 0 0 0 0 0 0 0 0 0 0 0 0 0 0 0 0 0 0 0 0 0 0 0 0 0 0 0 0 0 0 0 0 0 0 0 0 0 0 0 0 0 0 0 0 0 0 0 0 0 0 0 0 0 0 0 0 0 0 0 0 0 0 0 0 0 0 0 0 0 0 0 0 0 0
0 0 0 0 0 0 0 0 0 0 0 0 0 0 0 0 0 0 25 25 25 25 25 25 25 25 25 25 25 25 25 25 25 25 25 25 25 25 25 25 25 25 25 25 25 25 25 25 25 25 25 25 25 25 25 25 25 25 25 25 25 25 25 25 25 25 25 25 25 25 25 25 25 25 25 25 25 25 25 25 25 25 25 25 25 25 25 25 25 25 25 25 25 25 25 25 25 25 25 125 125 125 124 124 124 25 25 25 25 25 25 25 25 25 25 25 25 0 0 0 0 0 0 0 0 0 0 0 0 0 0 0 0 0 0 0 0 0 0 0 0 0 0 0 0 0 0 0 0 0 0 0 0 0 0 0 0 0 0 0 0 0 0 0 0 0 0 0 0 0 0 0 0 0 0 0 0 0 0 0 0 0 0 0 0 0 0 0 0 0 0 0 0 0 0 0 0 0 0 0 0 0 0 0 0 0 0 0 0 0 0 0 0 0 0 0
0 0 0 25 25 25 25 25 25 25 25 25 25 25 25 25 25 25 25 25 25 25 25 25 25 25 25 25 25 25 25 25 25 25 25 25 25 25 25 25 25 25 25 25 25 25 25 25 25 25 25 25 25 25 25 25 25 25 25 25 25 25 25 25 25 25 25 25 25 25 25 25 25 25 25 25 25 25 25 25 25 25 25 25 25 25 25 25 25 25 25 25 25 25 25 25 25 25 25 203 203 203 112 112 112 25 25 25 25 25 25 25 25 25 25 25 25 25 25 25 25 25 25 25 25 25 25 25 25 25 25 25 25 25 25 25 25 25 25 25 25 25 25 25 25 25 25 25 25 25 25 25 25 25 25 25 25 25 25 25 25 25 25 25 25 25 25 25 25 25 25 25 25 25 0 0 0 0 0 0 0 0 0 0 0 0 0 0 0 0 0 0 0 0 0 0 0 0 0 0 0 0 0 0 0 0 0 0 0 0 0 0 0 0 0 0
25 25 25 25 25 25 25 25 25 25 25 25 25 25 25 25 25 25 25 25 25 25 25 25 25 25 25 25 25 25 25 25 25 25 25 25 25 25 25 25 25 25 25 25 25 25 25 25 25 25 25 25 25 25 25 25 25 25 25 25 25 25 25 25 25 25 25 25 25 25 25 25 25 25 25 25 25 25 25 25 25 25 25 25 25 25 25 25 25 25 25 25 25 25 25 25 25 25 25 154 154 154 135 135 135 25 25 25 25 25 25 25 25 25 48 48 48 25 25 25 25 25 25 25 25 25 25 25 25 25 25 25 25 25 25 25 25 25 25 25 25 25 25 25 25 25 25 25 25 25 25 25 25 25 25 25 25 25 25 25 25 25 25 25 25 25 25 25 25 25 25 25 25 25 25 25 25 25 25 25 25 25 25 25 25 25 25 25 25 25 25 25 25 25 25 25 25 25 25 25 25 25 25 25 25 25 25 25 25 25 25 25 25 25 25 25
25 25 25 25 25 25 25 25 25 25 25 25 25 25 25 25 25 25 25 25 25 25 25 25 25 25 25 25 25 25 25 25 25 25 25 25 25 25 25 25 25 25 25 25 25 25 25 25 25 25 25 25 25 25 25 25 25 25 25 25 25 25 25 25 25 25 25 25 25 25 25 25 25 25 25 25 25 25 25 25 25 25 25 25 25 25 25 25 25 25 25 25 25 25 25 25 86 86 86 140 140 140 127 127 127 126 126 126 64 64 64 66 66 66 75 75 75 41 41 41 25 25 25 25 25 25 25 25 25 25 25 25 25 25 25 25 25 25 25 25 25 25 25 25 25 25 25 25 25 25 25 25 25 25 25 25 25 25 25 25 25 25 25 25 25 25 25 25 25 25 25 25 25 25 25 25 25 25 25 25 25 25 25 25 25 25 25 25 25 25 25 25 25 25 25 25 25 25 25 25 25 25 25 25 25 25 25 25 25 25 25 25 25 25 25 25
25 25 25 25 25 25 25 25 25 26 26 26 26 26 26 26 26 26 26 26 26 26 26 26 26 26 26 26 26 26 26 26 26 26 26 26 26 26 26 26 26 26 26 26 26 26 26 26 26 26 26 26 26 26 26 26 26 26 26 26 26 26 26 25 25 25 25 25 25 25 25 25 25 25 25 25 25 25 25 25 25 25 25 25 26 26 26 26 26 26 26 26 26 26 26 26 26 26 26 26 26 26 168 168 168 230 230 230 77 77 77 70 70 70 44 44 44 76 76 76 26 26 26 26 26 26 26 26 26 26 26 26 26 26 26 26 26 26 26 26 26 26 26 26 26 26 26 26 26 26 26 26 26 26 26 26 26 26 26 26 26 26 26 26 26 25 25 25 25 25 25 25 25 25 25 25 25 25 25 25 25 25 25 25 25 25 25 25 25 25 25 25 25 25 25 25 25 25 25 25 25 25 25 25 25 25 25 25 25 25 25 25 25 25 25 25
26 26 26 26 26 26 26 26 26 26 26 26 26 26 26 26 26 26 26 26 26 26 26 26 26 26 26 26 26 26 26 26 26 26 26 26 26 26 26 26 26 26 26 26 26 26 26 26 26 26 26 26 26 26 26 26 26 26 26 26 26 26 26 26 26 26 26 26 26 26 26 26 26 26 26 26 26 26 26 26 26 26 26 26 26 26 26 26 26 26 27 27 27 27 27 27 27 27 27 27 27 27 198 198 198 186 186 186 90 90 90 99 99 99 64 64 64 76 76 76 26 26 26 26 26 26 26 26 26 26 26 26 26 26 26 26 26 26 26 26 26 139 139 139 182 182 182 201 201 201 254 254 254 255 255 255 180 180 180 26 26 26 26 26 26 26 26 26 26 26 26 26 26 26 26 26 26 26 26 26 26 26 26 26 26 26 26 26 26 26 26 26 26 26 26 25 25 25 25 25 25 25 25 25 25 25 25 25 25 25 25 25 25 25 25 25
26 26 26 26 26 26 26 26 26 26 26 26 27 27 27 27 27 27 27 27 27 27 27 27 27 27 27 27 27 27 27 27 27 27 27 27 27 27 27 27 27 27 27 27 27 27 27 27 27 27 27 27 27 27 27 27 27 27 27 27 27 27 27 27 27 27 26 26 26 26 26 26 26 26 26 26 26 26 26 26 26 26 26 26 26 26 26 26 26 26 26 26 26 26 26 26 27 27 27 27 27 27 199 199 199 167 167 167 106 106 106 86 86 86 25 25 25 73 73 73 26 26 26 27 27 27 27 27 27 27 27 27 27 27 27 27 27 27 255 255 255 129 129 129 137 137 137 160 160 160 172 172 172 236 236 236 255 255 255 25 25 25 26 26 26 26 26 26 26 26 26 26 26 26 26 26 26 26 26 26 25 25 25 25 25 25 25 25 25 26 26 26 26 26 26 26 26 26 26 26 26 26 26 26 26 26 26 26 26 26 26 26 26 26 26 26
27 27 27 27 27 27 27 27 27 27 27 27 27 27 27 27 27 27 28 28 28 28 28 28 28 28 28 28 28 28 253 25 25 255 25 25 255 25 25 28 28 28 28 28 28 28 28 28 28 28 28 28 28 28 29 29 29 29 29 29 29 29 29 29 29 29 29 29 29 27 27 27 27 27 27 27 27 27 27 27 27 27 27 27 27 27 27 27 27 27 27 27 27 27 27 27 27 27 27 27 27 27 133 133 133 126 126 126 170 170 170 27 27 27 50 50 50 71 71 71 27 27 27 28 28 28 28 28 28 28 28 28 28 28 28 28 28 28 255 255 255 255 255 255 255 255 255 255 255 255 174 174 174 99 99 99 30 30 30 30 30 30 26 26 26 26 26 26 26 26 26 26 26 26 26 26 26 26 26 26 26 26 26 26 26 26 25 25 25 26 26 26 26 26 26 26 26 26 26 26 26 26 26 26 26 26 26 26 26 26 26 26 26 26 26 26
28 28 28 28 28 28 28 28 28 28 28 28 28 28 28 29 29 29 29 29 29 29 29 29 29 29 29 224 25 25 255 25 25 255 25 25 255 25 25 255 25 25 30 30 30 30 30 30 30 30 30 30 30 30 30 30 30 30 30 30 30 30 30 31 31 31 31 31 31 29 29 29 29 29 29 29 29 29 29 29 29 31 31 31 31 31 31 29 29 29 28 28 28 28 28 28 28 28 28 28 28 28 157 157 157 28 28 28 205 205 205 28 28 28 61 61 61 64 64 64 27 27 27 29 29 29 29 29 29 29 29 29 29 29 29 29 29 29 255 255 255 255 255 255 255 255 255 233 233 233 158 158 158 88 88 88 57 57 57 202 202 202 255 255 255 109 109 109 26 26 26 26 26 26 26 26 26 26 26 26 26 26 26 27 27 27 27 27 27 27 27 27 27 27 27 27 27 27 27 27 27 27 27 27 26 26 26 26 26 26 25 25 25 25 25 25
29 29 29 29 29 29 30 30 30 30 30 30 30 30 30 30 30 30 31 31 31 31 31 31 84 25 25 241 25 25 255 25 25 255 255 255 255 33 33 255 25 25 32 32 32 33 33 33 33 33 33 33 33 33 33 33 33 33 33 33 33 33 33 33 33 33 33 33 33 34 34 34 31 31 31 31 31 31 31 31 31 33 33 33 33 33 33 33 33 33 30 30 30 30 30 30 30 30 30 30 30 30 156 156 156 29 29 29 199 199 199 29 29 29 29 29 29 110 110 110 32 32 32 31 31 31 31 31 31 31 31 31 31 31 31 31 31 31 255 255 255 255 255 255 255 255 255 218 218 218 148 148 148 85 85 85 54 54 54 30 30 30 27 27 27 161 161 161 27 27 27 27 27 27 27 27 27 26 26 26 26 26 26 26 26 26 26 26 26 26 26 26 26 26 26 26 26 26 26 26 26 26 26 26 26 26 26 26 26 26 26 26 26 26 26 26
30 30 30 30 30 30 30 30 30 31 31 31 32 32 32 33 33 33 33 33 33 34 34 34 87 43 43 202 25 25 255 25 25 255 29 29 255 94 52 255 49 49 36 36 36 36 36 36 37 37 37 37 37 37 37 37 37 37 37 37 38 38 38 38 38 38 38 38 38 38 38 38 38 38 38 38 38 38 38 38 38 38 38 38 255 179 34 255 171 34 255 164 33 33 33 33 32 32 32 32 32 32 68 68 68 31 31 31 136 136 136 35 35 35 35 35 35 137 137 137 34 34 34 34 34 34 34 34 34 29 29 29 29 29 29 29 29 29 255 255 255 255 255 255 255 255 255 205 205 205 140 140 140 81 81 81 55 55 55 30 30 30 28 28 28 164 164 164 30 30 30 27 27 27 25 25 25 25 25 25 25 25 25 25 25 25 25 25 25 27 27 27 27 27 27 27 27 27 26 26 26 26 26 26 26 26 26 26 26 26 26 26 26 26 26 26
32 32 32 32 32 32 33 33 33 33 33 33 34 34 34 34 34 34 25 25 25 25 25 25 57 57 57 171 67 67 255 80 80 255 88 88 255 82 82 222 68 68 42 42 42 42 42 42 43 43 43 43 43 43 44 44 44 44 44 44 44 44 44 44 44 44 44 44 44 44 44 44 44 44 44 44 44 44 179 85 28 255 220 37 255 212 36 255 207 36 255 204 36 255 202 36 226 103 29 178 84 28 41 41 41 34 34 34 34 34 34 39 39 39 39 39 39 207 120 120 38 38 38 38 38 38 37 37 37 31 31 31 30 30 30 30 30 30 255 255 255 255 255 255 255 255 255 205 205 205 132 132 132 87 87 87 55 55 55 31 31 31 25 25 25 25 25 25 30 30 30 27 27 27 27 27 27 27 27 27 27 27 27 27 27 27 25 25 25 25 25 25 25 25 25 25 25 25 25 25 25 25 25 25 27 27 27 27 27 27 27 27 27 28 28 28
37 37 37 36 36 36 36 36 36 37 37 37 38 38 38 39 39 39 25 25 25 25 25 25 25 25 25 69 67 67 149 72 72 187 74 74 171 72 72 29 29 29 50 50 50 51 51 51 52 52 52 52 52 52 53 53 53 53 53 53 54 54 54 54 54 54 54 54 54 53 53 53 53 53 53 53 53 53 161 78 28 158 77 28 157 76 28 157 76 28 160 77 28 164 79 28 200 93 29 160 77 28 47 47 47 47 47 47 37 37 37 45 45 45 44 44 44 94 94 94 34 34 34 34 34 34 33 33 33 41 41 41 40 40 40 33 33 33 255 255 255 255 255 255 241 241 241 192 192 192 124 124 124 83 83 83 34 34 34 30 30 30 28 28 28 28 28 28 31 31 31 28 28 28 25 25 25 25 25 25 25 25 25 25 25 25 25 25 25 25 25 25 27 27 27 27 27 27 26 26 26 26 26 26 26 26 26 26 26 26 29 29 29 29 29 29
41 41 41 43 43 43 44 44 44 45 45 45 47 47 47 48 48 48 46 46 46 25 25 25 25 25 25 25 25 25 45 45 45 51 46 46 30 30 30 61 61 61 63 63 63 64 64 64 65 65 65 66 66 66 67 67 67 67 67 67 67 67 67 67 67 67 67 67 67 66 66 66 66 66 66 65 65 65 145 72 27 143 71 27 142 70 27 143 71 27 145 71 27 148 73 28 179 85 28 145 72 27 56 56 56 55 55 55 25 25 25 53 53 53 51 51 51 146 146 146 38 38 38 38 38 38 47 47 47 47 47 47 46 46 46 45 45 45 242 242 242 247 247 247 224 224 224 180 180 180 117 117 117 80 80 80 34 34 34 30 30 30 29 29 29 161 161 161 31 31 31 25 25 25 35 116 35 29 65 29 28 28 28 27 27 27 27 27 27 27 27 27 27 27 27 27 27 27 27 27 27 27 27 27 27 27 27 30 30 30 30 30 30 29 29 29
47 47 47 49 49 49 51 51 51 53 53 53 55 55 55 57 57 57 60 60 60 62 62 62 65 65 65 92 92 92 95 95 95 108 97 97 119 100 100 116 102 102 79 79 79 81 81 81 83 83 83 84 84 84 85 85 85 85 85 85 85 85 85 84 84 84 84 84 84 83 83 83 81 81 81 80 80 80 132 66 27 130 66 27 130 66 27 130 66 27 132 66 27 134 67 27 160 77 28 132 66 27 66 66 66 65 65 65 63 63 63 62 62 62 60 60 60 158 158 158 58 58 58 56 56 56 55 55 55 54 54 54 52 52 52 51 51 51 227 227 227 229 229 229 206 206 206 167 167 167 111 111 111 77 77 77 34 34 34 124 124 124 155 155 155 119 119 119 29 29 29 25 25 25 32 90 32 27 44 27 25 25 25 25 25 25 25 25 25 25 25 25 25 25 25 25 25 25 25 25 25 25 25 25 25 25 25 29 29 29 29 29 29 28 28 28
53 53 53 56 56 56 58 58 58 61 61 61 64 64 64 67 67 67 71 71 71 74 74 74 103 103 103 107 107 107 149 111 111 195 114 114 218 118 118 202 121 121 99 99 99 101 101 101 103 103 103 104 104 104 105 105 105 105 105 105 105 105 105 104 104 104 102 102 102 84 84 84 81 81 81 78 78 78 120 62 27 119 61 27 119 61 27 119 61 27 120 62 27 122 63 27 144 71 27 120 62 27 78 78 78 76 76 76 75 75 75 73 73 73 96 96 96 134 134 134 68 68 68 66 66 66 64 64 64 63 63 63 61 61 61 59 59 59 209 209 209 218 218 218 190 190 190 30 30 30 30 30 30 74 74 74 30 30 30 30 30 30 25 25 25 25 25 25 25 25 25 25 25 25 25 25 25 25 25 25 25 25 25 25 25 25 33 33 33 32 32 32 25 25 25 25 25 25 25 25 25 31 31 31 30 30 30 30 30 30 29 29 29 29 29 29
60 60 60 63 63 63 66 66 66 70 70 70 73 73 73 78 78 78 82 82 82 86 86 86 116 116 116 184 121 121 255 125 125 255 130 130 255 134 134 255 138 138 116 116 116 119 119 119 121 121 121 122 122 122 122 122 122 122 122 122 121 121 121 101 101 101 98 98 98 94 94 94 90 90 90 86 86 86 109 58 27 109 57 27 109 57 27 109 58 27 110 58 27 112 58 27 130 66 27 110 58 27 61 61 61 62 62 62 63 63 63 63 63 63 88 88 88 103 103 103 62 62 62 61 61 61 75 75 75 73 73 73 71 71 71 68 68 68 103 103 103 180 180 180 168 168 168 131 131 131 94 94 94 63 63 63 34 34 34 50 50 50 25 25 25 25 25 25 25 25 25 50 50 50 52 76 52 50 50 50 25 25 25 25 25 25 35 35 35 34 34 34 33 33 33 33 33 33 32 32 32 32 32 32 31 31 31 31 31 31 30 30 30 30 30 30
65 65 65 68 68 68 72 72 72 76 76 76 80 80 80 85 85 85 90 90 90 95 95 95 162 125 125 255 130 130 255 135 135 255 162 162 255 179 179 255 148 148 126 126 126 128 128 128 130 130 130 131 131 131 131 131 131 130 130 130 129 129 129 127 127 127 125 125 125 123 123 123 120 120 120 118 118 118 100 54 26 100 54 26 100 54 26 101 54 26 101 54 26 102 55 26 118 61 27 182 130 98 115 115 115 74 74 74 161 161 161 75 75 75 100 100 100 113 113 113 74 74 74 90 90 90 87 87 87 84 84 84 81 81 81 78 78 78 255 255 255 239 239 239 198 198 198 141 141 141 92 92 92 86 86 86 83 83 83 81 81 81 54 54 54 52 52 52 50 50 50 73 73 73 79 140 79 72 91 72 43 43 43 42 42 42 41 41 41 40 40 40 39 39 39 38 38 38 37 37 37 36 36 36 35 35 35 35 35 35 34 34 34 33 33 33
68 68 68 71 71 71 75 75 75 79 79 79 83 83 83 88 88 88 93 93 93 97 97 97 185 127 127 255 131 131 255 136 136 255 255 255 255 144 144 255 147 147 125 125 125 127 127 127 128 128 128 128 128 128 128 128 128 128 128 128 127 127 127 126 126 126 124 124 124 123 123 123 121 121 121 120 120 120 225 175 145 221 173 144 218 171 143 216 170 142 214 169 142 213 168 141 241 179 141 235 176 141 163 163 163 112 112 112 205 205 205 112 112 112 142 142 142 151 151 151 104 104 104 101 101 101 98 98 98 94 94 94 91 91 91 87 87 87 109 109 109 255 255 255 251 251 251 204 204 204 161 161 161 126 126 126 90 90 90 86 86 86 58 58 58 55 55 55 53 53 53 51 51 51 84 167 84 77 113 77 46 46 46 44 44 44 43 43 43 42 42 42 40 40 40 39 39 39 38 38 38 37 37 37 37 37 37 36 36 36 35 35 35 34 34 34
68 68 68 72 72 72 75 75 75 79 79 79 82 82 82 86 86 86 90 90 90 94 94 94 98 98 98 255 127 127 255 130 130 255 133 133 255 136 136 114 114 114 116 116 116 117 117 117 118 118 118 119 119 119 119 119 119 119 119 119 119 119 119 118 118 118 118 118 118 117 117 117 117 117 117 116 116 116 233 177 143 229 175 143 227 175 143 226 174 143 225 174 144 224 174 144 255 188 145 251 185 145 210 210 210 149 149 149 245 245 245 141 141 141 180 180 180 158 158 158 111 111 111 108 108 108 105 105 105 101 101 101 97 97 97 93 93 93 255 255 255 255 255 255 255 255 255 222 222 222 175 175 175 136 136 136 94 94 94 242 242 242 171 171 171 83 83 83 56 56 56 54 54 54 52 52 52 50 50 50 48 48 48 46 46 46 45 45 45 43 43 43 42 42 42 41 41 41 40 40 40 39 39 39 38 38 38 37 37 37 36 36 36 35 35 35
67 67 67 70 70 70 72 72 72 75 75 75 78 78 78 81 81 81 85 85 85 87 87 87 90 90 90 93 93 93 96 96 96 98 98 98 100 100 100 102 102 102 104 104 104 105 105 105 106 106 106 107 107 107 107 107 107 108 108 108 108 108 108 108 108 108 108 108 108 109 109 109 109 109 109 110 110 110 238 175 138 235 175 138 233 174 139 232 174 140 231 175 141 232 176 142 255 192 144 255 189 144 223 223 223 142 142 142 254 254 254 165 165 165 140 140 140 164 164 164 111 111 111 109 109 109 106 106 106 103 103 103 99 99 99 95 95 95 116 116 116 255 255 255 255 255 255 234 234 234 177 177 177 141 141 141 96 96 96 91 91 91 63 63 63 234 234 234 83 83 83 55 55 55 53 53 53 51 51 51 49 49 49 47 47 47 46 46 46 44 44 44 43 43 43 42 42 42 41 41 41 39 39 39 39 39 39 38 38 38 37 37 37 36 36 36
64 64 64 66 66 66 68 68 68 71 71 71 73 73 73 75 75 75 78 78 78 80 80 80 82 82 82 84 84 84 86 86 86 88 88 88 89 89 89 91 91 91 92 92 92 93 93 93 94 94 94 95 95 95 96 96 96 97 97 97 97 97 97 98 98 98 99 99 99 99 99 99 100 100 100 101 101 101 243 173 130 240 172 131 237 171 132 236 172 133 236 172 134 236 173 136 255 192 138 255 189 138 178 178 178 176 176 176 203 203 203 165 165 165 150 150 150 162 162 162 106 106 106 104 104 104 102 102 102 99 99 99 96 96 96 92 92 92 255 255 255 255 255 255 255 255 255 245 245 245 183 183 183 144 144 144 97 97 97 91 91 91 63 63 63 204 204 204 83 83 83 56 56 56 53 53 53 51 51 51 50 50 50 48 48 48 46 46 46 45 45 45 44 44 44 42 42 42 41 41 41 40 40 40 39 39 39 38 38 38 37 37 37 37 37 37
60 60 60 62 62 62 64 64 64 66 66 66 67 67 67 69 69 69 71 71 71 72 72 72 74 74 74 76 76 76 77 77 77 78 78 78 80 80 80 81 81 81 82 82 82 83 83 83 84 84 84 85 85 85 86 86 86 87 87 87 87 87 87 88 88 88 89 89 89 90 90 90 91 91 91 92 92 92 250 169 121 244 168 122 241 168 123 239 168 125 239 168 126 240 169 127 255 191 129 255 186 129 232 232 232 248 248 248 157 157 157 149 149 149 165 165 165 99 99 99 98 98 98 96 96 96 94 94 94 92 92 92 89 89 89 87 87 87 255 255 255 255 255 255 255 255 255 255 255 255 188 188 188 146 146 146 95 95 95 89 89 89 62 62 62 59 59 59 82 82 82 55 55 55 53 53 53 51 51 51 49 49 49 48 48 48 46 46 46 45 45 45 44 44 44 43 43 43 41 41 41 40 40 40 39 39 39 39 39 39 38 38 38 37 37 37
57 57 57 58 58 58 59 59 59 61 61 61 62 62 62 63 63 63 65 65 65 66 66 66 67 67 67 68 68 68 70 70 70 71 71 71 72 72 72 73 73 73 74 74 74 74 74 74 75 75 75 76 76 76 77 77 77 78 78 78 79 79 79 80 80 80 81 81 81 81 81 81 82 82 82 83 83 83 255 167 113 251 165 114 246 164 115 244 164 115 244 164 116 245 165 117 255 191 119 90 90 90 246 246 246 255 255 255 181 181 181 90 90 90 90 90 90 89 89 89 88 88 88 87 87 87 85 85 85 83 83 83 82 82 82 79 79 79 255 255 255 255 255 255 255 255 255 253 253 253 192 192 192 147 147 147 89 89 89 86 86 86 59 59 59 208 208 208 80 80 80 54 54 54 52 52 52 50 50 50 49 49 49 47 47 47 46 46 46 45 45 45 43 43 43 42 42 42 41 41 41 40 40 40 39 39 39 39 39 39 38 38 38 37 37 37
53 53 53 54 54 54 55 55 55 56 56 56 58 58 58 59 59 59 60 60 60 61 61 61 61 61 61 62 62 62 63 63 63 64 64 64 65 65 65 66 66 66 67 67 67 67 67 67 68 68 68 69 69 69 70 70 70 71 71 71 71 71 71 72 72 72 73 73 73 74 74 74 74 74 74 75 75 75 76 76 76 77 77 77 78 78 78 78 78 78 79 79 79 253 162 108 80 80 80 80 80 80 197 197 197 179 179 179 81 81 81 80 80 80 80 80 80 79 79 79 79 79 79 78 78 78 76 76 76 75 75 75 74 74 74 72 72 72 96 96 96 255 255 255 255 255 255 255 255 255 197 197 197 138 138 138 85 85 85 83 83 83 56 56 56 213 213 213 78 78 78 52 52 52 50 50 50 49 49 49 48 48 48 46 46 46 45 45 45 44 44 44 43 43 43 42 42 42 41 41 41 40 40 40 39 39 39 38 38 38 38 38 38 37 37 37
50 50 50 51 51 51 52 52 52 53 53 53 54 54 54 54 54 54 55 55 55 56 56 56 57 57 57 57 57 57 58 58 58 59 59 59 60 60 60 60 60 60 61 61 61 62 62 62 62 62 62 63 63 63 64 64 64 64 64 64 65 65 65 66 66 66 66 66 66 67 67 67 68 68 68 68 68 68 69 69 69 69 69 69 70 70 70 71 71 71 71 71 71 71 71 71 72 72 72 72 72 72 170 170 170 173 173 173 72 72 72 72 72 72 71 71 71 71 71 71 70 70 70 70 70 70 69 69 69 68 68 68 67 67 67 66 66 66 255 255 255 255 255 255 255 255 255 255 255 255 202 202 202 138 138 138 81 81 81 255 255 255 230 230 230 197 197 197 51 51 51 50 50 50 48 48 48 47 47 47 46 46 46 45 45 45 44 44 44 43 43 43 42 42 42 41 41 41 40 40 40 40 40 40 39 39 39 38 38 38 37 37 37 37 37 37
